# generated from PmQm by Jehee Lee
:FULLY-SPECIFIED
:DEGREES
220
root 118.5734385 39.0155 -23.03757165 -0.9436181614 -6.605393191 -4.210546979
RightUpLeg 7.32889965 2.098655054 7.049975712
RightLeg 12.67813753 0 0
RightFoot -17.6133237 12.53033113 -4.369561714
RightToes 2.32829e-010 -1.59028e-015 9.93923e-017
Spine -9.55206 4.83757 14.5931
Spine1 15.3412 5.80493 -6.97747
HEad -8.71883 -5.13068 1.30073
LeftShoulder1 9.93923e-017 0 1.22299e-017
LeftArm -0.365423 55.8509 -65.2931
LeftForeArm -9.19698 -8.25998 -4.8776
LeftHand 0.973909 6.82217 -5.55341
RightShoulder 1.98785e-016 -4.96962e-017 1.55301e-017
RightArm 19.5693 -20.2135 82.2798
RightForeArm -44.1874 29.9719 -26.7769
RightHand 1.14635 -10.1704 -6.21836
LeftUpLeg -25.47792936 -0.4103177429 3.446238968
LeftLeg 4.563211983 -5.954791303 0.661982288
LeftFoot 7.174463939 0.03072834331 -7.516292575
LeftToes 8.82235e-011 9.04645e-011 1.87288e-011
221
root 118.3905582 38.7936 -21.5848187 0.2003902049 -7.553812548 -4.649053965
RightUpLeg 8.801226872 1.780380632 7.148420924
RightLeg 12.18147805 0 0
RightFoot -18.47096327 14.07323386 -4.023856368
RightToes 2.32829e-010 -1.59028e-015 9.93923e-017
Spine -11.2292 5.50976 16.0989
Spine1 16.0748 6.49691 -8.38122
HEad -8.96868 -5.25482 1.45882
LeftShoulder1 9.93923e-017 0 1.22299e-017
LeftArm -3.43556 55.6358 -64.3967
LeftForeArm -7.41591 -6.44362 -5.20002
LeftHand 1.00257 7.13443 -5.52391
RightShoulder 1.98785e-016 -4.96962e-017 1.55301e-017
RightArm 19.2962 -19.3455 82.2059
RightForeArm -44.2739 29.6849 -26.5628
RightHand 1.13498 -10.1113 -6.14149
LeftUpLeg -27.13724259 -0.4954462185 3.172964872
LeftLeg 0.3511467213 -3.653777448 0.3462999258
LeftFoot 4.409681279 0.6615369152 -9.145050313
LeftToes 8.82235e-011 9.04645e-011 1.87288e-011
222
root 118.2046711 38.606 -20.11812696 1.036018973 -8.137015302 -4.5970224
RightUpLeg 10.22599037 1.388533897 6.558774256
RightLeg 12.28007789 0 0
RightFoot -18.35124133 15.84001615 -3.080332718
RightToes 2.32829e-010 -1.59028e-015 9.93923e-017
Spine -12.1546 5.85722 16.6885
Spine1 16.4674 7.00495 -9.47714
HEad -9.44381 -5.42776 1.65421
LeftShoulder1 9.93923e-017 0 1.22299e-017
LeftArm -6.6077 55.0293 -64.3725
LeftForeArm -5.50597 -4.71902 -5.34881
LeftHand 1.0012 7.1207 -5.41116
RightShoulder 1.98785e-016 -4.96962e-017 1.55301e-017
RightArm 19.1526 -19.652 82.4421
RightForeArm -44.4089 28.9425 -26.0225
RightHand 1.15452 -10.207 -6.29791
LeftUpLeg -28.38514316 -0.8701200342 2.454185408
LeftLeg 0.545569886 -1.361161308 0.03773935454
LeftFoot 1.999536137 0.9380097582 -10.29040144
LeftToes 8.82235e-011 9.04645e-011 1.87288e-011
223
root 118.0080796 38.4781 -18.57051622 1.353374678 -8.871208945 -3.802131495
RightUpLeg 11.70838371 0.669059945 4.761062282
RightLeg 13.31514325 0 0
RightFoot -17.56207653 18.43605751 -2.096767276
RightToes 2.32829e-010 -1.59028e-015 9.93923e-017
Spine -12.4809 6.07 16.131
Spine1 16.6758 7.5605 -10.1947
HEad -9.91584 -5.61014 1.72987
LeftShoulder1 9.93923e-017 0 1.22299e-017
LeftArm -9.17442 54.3413 -65.0809
LeftForeArm -4.28792 -3.67452 -5.31467
LeftHand 0.976454 6.86272 -5.07199
RightShoulder 1.98785e-016 -4.96962e-017 1.55301e-017
RightArm 19.3593 -21.2995 82.9588
RightForeArm -44.8823 27.7921 -25.1879
RightHand 1.1632 -10.207 -6.55283
LeftUpLeg -28.78602924 -1.832816647 1.230727323
LeftLeg 2.102161624 0 0
LeftFoot 2.691735835 0.5773003742 -8.22197334
LeftToes 8.82235e-011 9.04645e-011 1.87288e-011
224
root 117.7994221 38.3992 -16.940747 1.572148346 -10.44023952 -2.364621751
RightUpLeg 12.20973136 -0.8607556508 1.220634065
RightLeg 16.23424641 0 0
RightFoot -16.28211877 22.86416639 -1.108269881
RightToes 2.32829e-010 -1.59028e-015 9.93923e-017
Spine -12.9619 6.48979 14.6785
Spine1 16.9032 8.37685 -10.7635
HEad -9.95357 -5.53207 1.71529
LeftShoulder1 9.93923e-017 0 1.22299e-017
LeftArm -10.4968 54.0093 -66.1619
LeftForeArm -4.69278 -3.83271 -5.16164
LeftHand 0.972732 6.82958 -4.8704
RightShoulder 1.98785e-016 -4.96962e-017 1.55301e-017
RightArm 21.128 -23.8806 83.8761
RightForeArm -46.265 25.967 -23.8724
RightHand 1.1413 -10.0446 -6.63461
LeftUpLeg -26.58868929 -2.899442097 -0.2164610844
LeftLeg 1.277813348 0 0
LeftFoot 7.785883937 1.005807291 -3.227483167
LeftToes 8.82235e-011 9.04645e-011 1.87288e-011
225
root 117.6028709 38.41137577 -15.53169647 1.341103078 -10.73863444 -0.2020512443
RightUpLeg 9.015767828 -2.770987444 -2.944658273
RightLeg 24.82790247 0 0
RightFoot -9.281939094 24.32109873 -2.469690569
RightToes 2.32829e-010 -1.59028e-015 9.93923e-017
Spine -12.66719625 5.540481784 10.99942851
Spine1 15.9615952 7.528856474 -10.68229244
HEad -9.20112049 -5.217998903 2.316593388
LeftShoulder1 9.93923e-017 0 1.22299e-017
LeftArm -11.70516909 52.82736869 -67.28620872
LeftForeArm -5.529452188 -3.703602121 -5.188081799
LeftHand 1.02661 7.3694 -4.41701
RightShoulder 1.98785e-016 -4.96962e-017 1.55301e-017
RightArm 25.11560053 -27.33790153 85.93115987
RightForeArm -48.41120236 24.4836114 -22.94891294
RightHand 1.19146 -10.4042 -6.50393
LeftUpLeg -24.88273989 -3.13462603 -2.266438309
LeftLeg 2.163784465 0 0
LeftFoot 9.709404967 1.119084879 -2.318480213
LeftToes 8.82235e-011 9.04645e-011 1.87288e-011
226
root 117.4227118 38.40759866 -14.24384313 1.093934562 -10.22011883 1.817793911
RightUpLeg 4.286006049 -3.290995253 -6.703649181
RightLeg 36.12276409 0 0
RightFoot 0.6934893446 23.00080562 -6.363779174
RightToes 2.32829e-010 -1.59028e-015 9.93923e-017
Spine -10.80497685 3.879197811 6.711755758
Spine1 14.21047052 5.898573178 -10.27596106
HEad -9.356503806 -4.691262502 2.837931317
LeftShoulder1 9.93923e-017 0 1.22299e-017
LeftArm -11.25042111 49.76714594 -68.94589826
LeftForeArm -6.340785174 -3.82537775 -5.561190529
LeftHand 1.0097 7.20765 -5.05441
RightShoulder 1.98785e-016 -4.96962e-017 1.55301e-017
RightArm 28.6562778 -30.59627422 88.18877302
RightForeArm -51.86194915 22.11632745 -20.82756746
RightHand 1.16096 -10.3732 -5.78301
LeftUpLeg -25.4273164 -3.018508553 -3.592820654
LeftLeg 9.075551379 0 0
LeftFoot 5.965911822 -0.9878009154 -1.701709961
LeftToes 8.82235e-011 9.04645e-011 1.87288e-011
227
root 117.2563574 38.40860858 -13.04295839 0.8367558562 -10.31535834 3.41187814
RightUpLeg -0.4563309298 -2.502389541 -8.060754438
RightLeg 46.04286738 -2.883944261 -5.704842628
RightFoot 12.13530469 23.11512335 -0.1819653461
RightToes 2.32829e-010 -1.59028e-015 9.93923e-017
Spine -8.615737823 2.739157942 2.825787768
Spine1 13.05120699 4.637527439 -9.763503017
HEad -10.24917151 -4.023258346 2.809232198
LeftShoulder1 9.93923e-017 0 1.22299e-017
LeftArm -9.244655508 44.94620471 -71.2246392
LeftForeArm -7.754399472 -4.268921786 -6.17987125
LeftHand 0.992905 7.03592 -5.03757
RightShoulder 1.98785e-016 -4.96962e-017 1.55301e-017
RightArm 26.74857932 -33.49647376 89.80611261
RightForeArm -50.5587284 20.74354785 -16.03337121
RightHand 1.09086 -10.2491 -4.27313
LeftUpLeg -25.58139696 -2.943063986 -4.017500719
LeftLeg 15.75668372 0 0
LeftFoot 1.595478638 -2.635623575 -1.273542536
LeftToes 8.82235e-011 9.04645e-011 1.87288e-011
228
root 117.0855993 38.53700323 -11.79897093 0.5708522004 -11.24594846 4.290159273
RightUpLeg -5.841833555 -0.8124854117 -8.695872215
RightLeg 53.77601243 -3.870013776 -11.13950303
RightFoot 16.72062198 19.99680893 4.370813601
RightToes 2.32829e-010 -1.59028e-015 9.93923e-017
Spine -7.156561866 2.192774118 -0.3495186524
Spine1 12.58159011 3.779607961 -8.859403652
HEad -10.95362685 -3.058958446 2.324656645
LeftShoulder1 9.93923e-017 0 1.22299e-017
LeftArm -6.599681884 39.93016714 -73.60455984
LeftForeArm -10.45827374 -5.325537262 -6.581468644
LeftHand 0.970123 6.82072 -4.29005
RightShoulder 1.98785e-016 -4.96962e-017 1.55301e-017
RightArm 20.68931634 -36.20283342 90.30526425
RightForeArm -43.36041459 19.73561349 -9.223474288
RightHand 1.03939 -10.2002 -2.94224
LeftUpLeg -24.49170135 -2.892592833 -3.778129701
LeftLeg 19.95233099 0 0
LeftFoot -1.179125191 -3.053063464 -1.425599871
LeftToes 8.82235e-011 9.04645e-011 1.87288e-011
229
root 116.8909168 38.80596671 -10.4295538 0.3984762157 -11.77000284 4.192617703
RightUpLeg -10.31746795 0.005405778954 -7.911328824
RightLeg 57.94973566 -2.633521051 -13.64645777
RightFoot 14.84111186 16.92225953 6.073264019
RightToes 2.32829e-010 -1.59028e-015 9.93923e-017
Spine -6.580303668 1.426715935 -2.500291036
Spine1 12.02732856 2.53177302 -7.099113957
HEad -10.67315642 -1.707370066 1.845580681
LeftShoulder1 9.93923e-017 0 1.22299e-017
LeftArm -3.809392417 36.06141893 -75.4896582
LeftForeArm -14.22375103 -8.752497789 -5.514277912
LeftHand 0.942205 6.57551 -3.70458
RightShoulder 1.98785e-016 -4.96962e-017 1.55301e-017
RightArm 18.87628383 -39.36248856 90.13882366
RightForeArm -38.50217185 18.41094486 -4.684044826
RightHand 1.03827 -10.3208 -2.49664
LeftUpLeg -22.13027232 -2.509676675 -3.115026756
LeftLeg 21.57062817 0 0
LeftFoot -2.922856123 -3.821046203 -1.888023784
LeftToes 8.82235e-011 9.04645e-011 1.87288e-011
230
root 116.6401036 39.10022876 -9.015714187 0.3395164139 -11.55053484 3.507312298
RightUpLeg -14.02877154 -0.2166386967 -6.239386401
RightLeg 59.12392761 -0.06912129738 -12.14555108
RightFoot 10.18640186 14.53237299 5.548321137
RightToes 2.32829e-010 -1.59028e-015 9.93923e-017
Spine -6.315187585 0.1881540979 -4.080899583
Spine1 11.21637537 0.7403442811 -4.786584006
HEad -9.704885422 -0.1793111848 1.644131506
LeftShoulder1 9.93923e-017 0 1.22299e-017
LeftArm 3.522023335 33.1756349 -76.94828246
LeftForeArm -23.2206879 -14.72302294 -1.994601734
LeftHand 0.92793 6.45217 -3.57146
RightShoulder 1.98785e-016 -4.96962e-017 1.55301e-017
RightArm 20.91748875 -43.21982022 89.5968458
RightForeArm -37.60342559 17.83731527 -3.186553323
RightHand 1.04716 -10.4116 -2.45404
LeftUpLeg -19.22913716 -1.868049446 -2.136203658
LeftLeg 21.85539318 0 0
LeftFoot -4.532606036 -5.470383213 -2.336248265
LeftToes 8.82235e-011 9.04645e-011 1.87288e-011
231
root 116.2865746 39.3243055 -7.647177394 0.2740756706 -11.55639112 2.802578523
RightUpLeg -17.44927664 -0.5522599753 -4.4757598
RightLeg 57.95291095 2.434829726 -9.095926596
RightFoot 6.189706838 12.344978 4.835484996
RightToes 2.32829e-010 -1.59028e-015 9.93923e-017
Spine -6.224798102 -1.022952818 -5.439737597
Spine1 10.74555347 -0.9501929401 -2.762801687
HEad -8.939168264 1.155813541 1.581018609
LeftShoulder1 9.93923e-017 0 1.22299e-017
LeftArm 16.56862281 30.40327029 -78.14285115
LeftForeArm -38.25626847 -20.89606089 4.907431017
LeftHand 0.925915 6.44464 -3.3863
RightShoulder 1.98785e-016 -4.96962e-017 1.55301e-017
RightArm 22.97534893 -47.46687037 88.38872627
RightForeArm -38.47724037 17.9757794 -3.561399452
RightHand 1.02044 -10.2376 -2.25741
LeftUpLeg -16.39049526 -0.8753402732 -1.003813903
LeftLeg 21.8244352 0 0
LeftFoot -5.95681535 -7.200134419 -2.76109372
LeftToes 8.82235e-011 9.04645e-011 1.87288e-011
232
root 115.902699 39.45480002 -6.288204572 0.1780195233 -11.96275392 2.315718802
RightUpLeg -20.65334739 -0.757037426 -2.997581286
RightLeg 54.79255682 4.182940262 -6.552728147
RightFoot 2.899486518 10.23726404 4.835199515
RightToes 2.32829e-010 -1.59028e-015 9.93923e-017
Spine -6.476834001 -1.996266867 -6.638626845
Spine1 10.81716567 -2.272585215 -1.176215133
HEad -8.783275448 2.163025137 1.510925589
LeftShoulder1 9.93923e-017 0 1.22299e-017
LeftArm 28.24911652 27.30387139 -78.72481338
LeftForeArm -50.97349422 -24.47461644 12.78925711
LeftHand 0.913312 6.34459 -3.16304
RightShoulder 1.98785e-016 -4.96962e-017 1.55301e-017
RightArm 24.95092971 -51.58391205 86.49370238
RightForeArm -40.64563351 18.51131628 -5.096103606
RightHand 0.9969 -10.0451 -2.20697
LeftUpLeg -13.67312283 0.3350085175 0.01970322916
LeftLeg 21.75278272 0 0
LeftFoot -7.155917647 -8.664392558 -3.018692134
LeftToes 8.82235e-011 9.04645e-011 1.87288e-011
